# xmcd CD database file
#
# Track frame offsets:
#	150
#	23215
#	68283
#	90468
#	101931
#	129591
#	142887
#	176897
#	199410
#	226637
#
# Disc length: 3221 seconds
#
# Revision: 0
# Processed by: cddbd v1.5.1PL0 Copyright (c) Steve Scherf et al.
# Submitted via: CDex 1.51
#
DISCID=800c930a
DTITLE=Matthieu Michel - Estate
DYEAR=1995
DGENRE=Jazz
TTITLE0=Leaving
TTITLE1=Never Let Me Go
TTITLE2=Moon Princess
TTITLE3=It Could Be Worse
TTITLE4=Estate
TTITLE5=Round Trip
TTITLE6=Sail Away
TTITLE7=Caruso
TTITLE8=On The Spot
TTITLE9=Moment To Moment
EXTD=YEAR: 1995
EXTT0=
EXTT1=
EXTT2=
EXTT3=
EXTT4=
EXTT5=
EXTT6=
EXTT7=
EXTT8=
EXTT9=
PLAYORDER=
